<?xml version="1.0" standalone="no"?>
<!DOCTYPE svg PUBLIC "-//W3C//DTD SVG 20010904//EN"
 "http://www.w3.org/TR/2001/REC-SVG-20010904/DTD/svg10.dtd">
<svg version="1.0" xmlns="http://www.w3.org/2000/svg"
 width="1024.000000pt" height="1024.000000pt" viewBox="0 0 1024.000000 1024.000000"
 preserveAspectRatio="xMidYMid meet">

<g transform="translate(0.000000,1024.000000) scale(0.100000,-0.100000)"
fill="#000000" stroke="none">
<path d="M0 5120 l0 -5120 5120 0 5120 0 0 5120 0 5120 -5120 0 -5120 0 0
-5120z m5505 5089 c33 -5 104 -12 158 -15 54 -4 100 -11 103 -15 3 -5 36 -9
74 -9 38 0 72 -4 75 -10 3 -5 31 -10 61 -10 30 0 62 -4 72 -9 9 -5 63 -18 120
-28 56 -10 102 -21 102 -25 0 -5 20 -8 44 -8 25 0 48 -4 51 -10 3 -5 16 -10
27 -10 24 0 124 -27 150 -41 10 -5 31 -9 47 -9 17 0 33 -4 36 -10 3 -5 19 -10
34 -10 16 0 34 -7 41 -15 7 -8 23 -15 36 -15 12 0 26 -4 29 -10 3 -5 17 -10
30 -10 13 0 26 -4 29 -9 3 -5 22 -12 42 -16 20 -3 43 -13 51 -21 8 -8 25 -14
38 -14 13 0 27 -4 30 -10 3 -5 15 -10 26 -10 10 0 19 -4 19 -8 0 -5 19 -14 43
-21 55 -16 97 -34 97 -42 0 -4 13 -9 30 -12 16 -4 48 -18 70 -32 22 -14 54
-28 70 -32 17 -3 30 -9 30 -14 0 -5 9 -9 20 -9 11 0 20 -4 20 -10 0 -5 9 -10
20 -10 11 0 20 -4 20 -8 0 -8 46 -35 63 -36 4 -1 11 -5 15 -11 4 -5 25 -19 47
-30 22 -11 42 -22 45 -25 3 -4 22 -15 43 -26 73 -36 77 -39 77 -46 0 -5 6 -8
14 -8 8 0 28 -11 44 -25 17 -14 32 -25 35 -25 4 0 78 -49 268 -179 35 -24 71
-50 79 -57 8 -8 49 -41 90 -74 41 -33 87 -72 103 -85 15 -14 31 -25 35 -25 13
0 512 -492 512 -504 0 -6 29 -41 65 -76 36 -35 65 -69 65 -75 0 -6 16 -26 35
-45 19 -19 35 -39 35 -46 0 -7 3 -14 8 -16 9 -4 132 -156 132 -163 0 -3 11
-18 25 -33 14 -15 25 -30 25 -34 0 -11 63 -102 78 -111 6 -4 12 -12 12 -17 0
-5 17 -36 37 -67 46 -70 69 -110 85 -143 7 -14 18 -31 25 -38 7 -7 13 -19 13
-27 0 -7 3 -15 8 -17 14 -6 212 -401 254 -508 6 -14 14 -33 19 -42 5 -10 9
-25 9 -33 0 -8 5 -15 10 -15 6 0 10 -11 10 -24 0 -14 4 -27 9 -31 5 -3 13 -20
17 -37 3 -18 10 -39 14 -48 15 -30 29 -66 45 -120 10 -30 21 -63 26 -72 5 -10
9 -27 9 -37 0 -11 5 -23 10 -26 6 -3 10 -21 10 -40 0 -19 5 -37 10 -40 6 -3
10 -19 10 -35 0 -16 5 -32 10 -35 6 -3 10 -24 10 -45 0 -21 4 -41 9 -45 6 -3
13 -26 17 -50 3 -25 10 -48 15 -51 5 -3 9 -27 9 -55 0 -27 5 -49 10 -49 6 0
10 -22 10 -48 0 -26 4 -52 9 -57 5 -6 12 -35 15 -65 9 -98 23 -204 29 -230 34
-134 50 -797 27 -1059 -15 -171 -53 -439 -81 -576 -6 -27 -13 -70 -16 -95 -3
-25 -9 -49 -13 -55 -4 -5 -11 -30 -15 -55 -4 -25 -11 -49 -15 -55 -4 -5 -10
-23 -13 -40 -3 -16 -11 -50 -17 -75 -6 -25 -14 -60 -17 -78 -3 -18 -9 -35 -14
-38 -5 -3 -9 -16 -9 -29 0 -13 -5 -27 -10 -30 -5 -3 -10 -15 -10 -26 0 -10 -4
-27 -9 -37 -19 -37 -30 -68 -37 -101 -3 -19 -15 -50 -25 -68 -11 -19 -19 -40
-19 -48 0 -9 -4 -23 -9 -33 -5 -9 -13 -28 -18 -42 -14 -36 -28 -68 -50 -120
-11 -25 -26 -60 -34 -77 -8 -18 -17 -33 -21 -33 -5 0 -8 -6 -8 -14 0 -14 -134
-282 -154 -306 -6 -8 -18 -28 -26 -45 -8 -16 -29 -54 -47 -83 -18 -29 -33 -55
-33 -59 0 -3 -18 -30 -40 -59 -22 -29 -40 -57 -40 -62 0 -5 -9 -17 -20 -27
-11 -10 -20 -21 -20 -25 0 -14 -81 -130 -91 -130 -5 0 -9 -6 -9 -12 0 -11
-107 -152 -169 -224 -10 -12 -22 -28 -27 -37 -5 -8 -39 -47 -76 -86 -38 -39
-68 -75 -68 -81 0 -13 -489 -500 -502 -500 -5 0 -40 -27 -77 -60 -37 -33 -71
-60 -76 -60 -4 0 -24 -15 -44 -32 -70 -62 -91 -78 -101 -78 -6 0 -10 -4 -10
-10 0 -5 -5 -10 -11 -10 -7 0 -44 -25 -84 -55 -39 -30 -77 -55 -83 -55 -7 0
-12 -5 -12 -10 0 -6 -16 -18 -35 -27 -19 -9 -35 -20 -35 -25 0 -4 -5 -8 -11
-8 -6 0 -25 -10 -42 -22 -35 -25 -64 -43 -87 -54 -8 -4 -17 -10 -20 -14 -3 -3
-25 -16 -50 -28 -50 -25 -80 -42 -157 -89 -29 -18 -53 -31 -53 -28 0 2 -15 -4
-32 -15 -36 -21 -77 -41 -93 -44 -5 -1 -55 -24 -110 -50 -55 -27 -109 -52
-120 -56 -11 -4 -40 -17 -63 -29 -24 -11 -54 -21 -67 -21 -13 0 -27 -4 -30
-10 -3 -5 -15 -10 -26 -10 -10 0 -19 -4 -19 -9 0 -7 -16 -13 -79 -27 -7 -1
-18 -7 -24 -13 -6 -6 -21 -11 -34 -11 -13 0 -31 -4 -41 -9 -28 -14 -85 -33
-115 -38 -15 -3 -30 -9 -33 -14 -3 -5 -23 -9 -45 -9 -21 0 -39 -4 -39 -10 0
-5 -8 -10 -17 -10 -26 0 -155 -30 -175 -41 -10 -5 -36 -9 -57 -9 -22 0 -43 -4
-46 -10 -3 -5 -28 -10 -55 -10 -27 0 -51 -4 -54 -9 -3 -4 -50 -14 -103 -20
-54 -6 -138 -18 -188 -26 -153 -24 -328 -36 -653 -42 -216 -4 -319 -3 -335 5
-12 6 -101 18 -197 27 -96 8 -227 25 -290 36 -63 12 -136 23 -162 26 -27 3
-48 9 -48 14 0 5 -25 9 -55 9 -30 0 -55 5 -55 10 0 6 -9 10 -20 10 -28 0 -151
29 -172 41 -10 5 -31 9 -47 9 -17 0 -33 5 -36 10 -3 6 -15 10 -25 10 -11 0
-34 6 -52 14 -18 8 -53 20 -78 27 -25 7 -49 16 -55 20 -5 4 -27 10 -48 14 -20
4 -40 11 -43 16 -3 5 -13 9 -22 9 -9 0 -30 7 -46 15 -15 8 -34 15 -42 15 -7 0
-29 9 -49 20 -20 11 -40 20 -46 20 -11 0 -69 23 -104 42 -29 16 -45 23 -95 46
-95 42 -186 87 -220 107 -55 34 -131 76 -175 98 -22 10 -53 29 -70 42 -16 12
-40 25 -51 29 -12 3 -29 15 -39 26 -10 11 -21 20 -26 20 -10 0 -198 128 -228
156 -14 13 -29 24 -34 24 -4 0 -13 4 -20 10 -7 5 -32 26 -57 46 -25 19 -53 42
-63 50 -9 8 -20 14 -23 14 -8 0 -128 102 -132 113 -2 4 -9 7 -15 7 -25 0 -532
512 -633 639 -10 13 -36 43 -56 66 -21 23 -38 47 -38 53 0 6 -4 12 -8 14 -12
4 -158 198 -206 273 -21 33 -42 62 -47 63 -5 2 -9 8 -9 13 0 5 -18 35 -40 66
-22 32 -40 64 -40 71 0 6 -4 12 -10 12 -5 0 -10 5 -10 10 0 6 -12 29 -26 52
-14 23 -36 60 -48 82 -30 56 -50 90 -56 96 -6 6 -103 202 -154 312 -20 42 -36
82 -36 90 0 8 -4 18 -8 24 -4 5 -18 36 -31 69 -12 33 -27 70 -32 83 -5 12 -14
34 -20 50 -6 15 -15 35 -20 44 -5 10 -9 25 -9 33 0 8 -4 23 -9 33 -6 9 -17 44
-26 77 -10 33 -21 69 -25 80 -9 21 -18 59 -27 113 -3 18 -9 35 -14 38 -5 3 -9
20 -9 39 0 19 -4 37 -10 40 -5 3 -12 28 -16 56 -4 27 -11 52 -15 55 -5 3 -9
27 -9 54 0 27 -4 52 -10 55 -5 3 -10 25 -10 49 0 23 -3 46 -8 50 -12 12 -43
219 -64 426 -16 154 -16 859 -1 1015 12 118 32 263 53 380 6 33 14 80 17 105
3 25 9 49 14 55 5 5 9 28 9 51 0 24 5 46 10 49 6 3 10 18 10 32 0 28 26 126
41 155 5 10 9 31 9 47 0 17 5 33 10 36 6 3 10 19 10 35 0 16 5 32 10 35 6 3
10 19 10 35 0 16 4 31 9 34 5 4 12 24 16 46 4 22 11 42 16 46 5 3 9 14 9 25 0
10 4 27 9 37 5 9 14 31 21 47 7 17 16 38 21 47 5 10 9 24 9 32 0 8 8 31 19 53
10 21 27 58 36 83 35 90 217 462 235 480 3 3 14 23 26 45 28 54 48 89 54 95 3
3 12 19 21 35 18 39 72 119 82 123 4 2 7 9 7 16 0 7 9 21 20 31 11 10 20 23
20 29 0 6 11 24 25 40 14 16 25 32 25 36 0 3 8 15 18 26 10 10 27 35 39 54 12
19 33 47 45 61 33 38 119 145 146 182 13 18 50 59 83 92 32 33 59 66 59 72 0
12 499 503 512 503 4 0 20 11 35 24 89 78 111 96 117 96 3 0 14 8 24 18 36 35
208 162 220 162 4 0 19 10 32 23 38 33 88 67 100 67 5 0 10 5 10 10 0 6 4 10
9 10 4 0 39 20 77 45 38 25 87 55 109 66 22 11 56 30 75 41 68 41 136 78 180
100 25 13 47 26 48 31 2 4 11 7 19 7 9 0 45 14 82 31 98 47 213 99 241 111 14
6 32 14 40 18 9 4 30 11 48 14 17 4 34 12 37 17 4 5 13 9 22 9 8 0 29 7 46 15
18 8 72 27 120 44 49 16 91 32 94 35 4 3 19 6 35 6 15 0 36 4 46 9 29 16 119
41 146 41 14 0 28 5 31 10 3 6 26 10 51 10 24 0 44 4 44 8 0 8 82 27 165 38
22 4 44 10 49 15 6 5 38 9 72 9 35 0 66 5 69 10 3 6 37 10 75 10 38 0 72 5 75
10 3 6 49 10 104 10 53 0 101 4 107 9 5 6 29 11 54 14 93 8 708 5 765 -4z
m4185 -9435 c0 -8 -4 -12 -10 -9 -5 3 -10 10 -10 16 0 5 5 9 10 9 6 0 10 -7
10 -16z m-10 -31 c0 4 6 2 14 -5 13 -11 13 -15 -2 -25 -10 -8 -11 -13 -3 -13
7 0 10 -4 7 -8 -3 -5 5 -8 17 -8 16 1 23 -6 25 -23 3 -19 6 -21 13 -10 7 11 9
11 9 -3 0 -9 8 -18 17 -20 9 -2 17 -13 18 -25 1 -17 -1 -20 -11 -12 -9 7 -12
6 -10 -6 3 -22 19 -21 31 2 12 23 37 19 28 -4 -5 -12 -1 -14 14 -9 13 4 25 1
33 -9 7 -9 9 -15 4 -14 -21 4 -34 -2 -55 -23 -12 -13 -18 -16 -14 -8 5 8 -8
-3 -28 -25 -21 -21 -49 -45 -65 -52 -15 -7 -19 -11 -9 -8 19 5 21 -3 8 -23 -7
-11 -11 -10 -24 2 -9 9 -18 12 -21 7 -3 -5 1 -12 10 -15 13 -5 14 -9 4 -21
-10 -12 -10 -15 1 -15 12 0 12 -2 0 -9 -7 -5 -10 -14 -7 -20 4 -6 2 -11 -4
-11 -6 0 -9 14 -7 34 3 26 1 33 -10 29 -9 -4 -11 0 -6 13 4 11 3 15 -5 10 -6
-3 -13 -2 -16 3 -4 5 -2 12 3 16 15 9 2 33 -17 31 -19 -3 -42 17 -60 53 -7 14
-10 18 -7 9 5 -20 4 -21 -19 -12 -8 3 -12 12 -9 21 5 12 1 14 -15 9 -11 -4
-23 -2 -27 4 -4 7 2 14 14 17 12 3 18 10 14 17 -3 6 -3 8 2 4 4 -4 14 0 22 10
9 10 11 11 7 2 -10 -19 76 69 95 98 8 11 18 19 21 17 4 -3 5 8 3 23 -4 21 -2
24 6 12 6 -8 11 -11 11 -7z"/>
<path d="M3951 3476 c5 -4 150 -15 234 -17 l60 -2 -45 -7 -45 -7 48 -1 47 -2
0 -102 c0 -56 2 -99 4 -97 3 2 7 57 10 122 l6 117 -161 0 c-90 0 -160 -2 -158
-4z"/>
<path d="M4611 3413 c1 -38 4 -57 6 -43 2 14 9 35 15 48 10 19 9 25 -2 32 -13
8 23 16 115 23 22 2 1 4 -47 5 l-88 2 1 -67z"/>
<path d="M5878 3473 c23 -2 61 -2 85 0 23 2 4 4 -43 4 -47 0 -66 -2 -42 -4z"/>
<path d="M5631 3314 c0 -11 3 -14 6 -6 3 7 2 16 -1 19 -3 4 -6 -2 -5 -13z"/>
<path d="M5621 2793 c2 -31 3 -33 6 -10 2 15 9 27 14 27 5 0 9 5 9 10 0 6 -7
10 -15 10 -11 0 -15 -10 -14 -37z"/>
<path d="M5660 2819 c0 -5 5 -7 10 -4 6 3 10 8 10 11 0 2 -4 4 -10 4 -5 0 -10
-5 -10 -11z"/>
<path d="M4257 2406 c-7 -73 -5 -97 8 -84 3 3 5 41 3 84 l-3 79 -8 -79z"/>
<path d="M4255 2290 c-3 -5 -1 -10 4 -10 6 0 11 5 11 10 0 6 -2 10 -4 10 -3 0
-8 -4 -11 -10z"/>
<path d="M4363 2226 c12 -9 33 -12 60 -9 71 9 66 23 -8 23 -61 -1 -68 -2 -52
-14z"/>
<path d="M9646 687 c-16 -12 -16 -14 5 -32 12 -11 19 -15 16 -8 -4 6 -1 14 5
17 11 5 11 7 0 12 -6 3 -10 10 -6 15 7 13 1 11 -20 -4z m14 -17 c0 -5 -2 -10
-4 -10 -3 0 -8 5 -11 10 -3 6 -1 10 4 10 6 0 11 -4 11 -10z"/>
<path d="M9697 666 c-24 -18 -21 -26 8 -24 14 1 25 8 25 15 0 19 -14 22 -33 9z"/>
<path d="M9575 620 c-4 -6 -1 -18 7 -27 7 -9 12 -18 10 -20 -2 -3 -1 -7 2 -10
10 -10 7 21 -4 37 -6 9 -5 17 3 22 9 6 9 8 0 8 -6 0 -15 -5 -18 -10z"/>
<path d="M9545 577 c-15 -12 -16 -15 -4 -22 8 -5 11 -5 7 0 -4 4 0 14 10 21
23 18 11 18 -13 1z"/>
<path d="M9813 563 c10 -16 -23 -25 -39 -12 -17 14 -19 -7 -4 -31 6 -9 5 -17
-3 -23 -8 -6 -7 -7 3 -4 8 2 14 12 14 21 -1 9 1 16 5 16 4 0 15 6 26 13 14 11
15 16 5 22 -8 5 -11 4 -7 -2z"/>
<path d="M9570 538 c0 -8 6 -21 14 -27 11 -10 14 -9 12 4 -1 8 -8 21 -14 27
-9 9 -12 8 -12 -4z"/>
<path d="M9650 476 c0 -2 7 -6 15 -10 8 -3 15 -1 15 4 0 6 -7 10 -15 10 -8 0
-15 -2 -15 -4z"/>
<path d="M9700 465 c-10 -12 -10 -15 2 -15 8 0 15 7 15 15 0 8 -1 15 -2 15 -2
0 -8 -7 -15 -15z"/>
</g>
</svg>
